<svg xmlns="http://www.w3.org/2000/svg" version="1.1" viewBox="-5.0 -10.0 110.0 135.0">
 <path d="m37.465 42.477h9.9531l1.0625 20.258c0.042969 0.84766 0.74219 1.5117 1.5898 1.5117h8.3047c0.4375 0 0.85547-0.17969 1.1562-0.49609s0.45703-0.74609 0.4375-1.1797l-1.0547-20.09h9.7852v-0.003907c0.4375 0.003907 0.85547-0.17578 1.1562-0.49609 0.30078-0.31641 0.45703-0.74219 0.43359-1.1797l-0.43359-8.3047c-0.042969-0.84766-0.74609-1.5117-1.5938-1.5117h-9.9492l-0.44531-8.5v0.003906c-0.042969-0.84766-0.74609-1.5117-1.5938-1.5117h-8.3047c-0.4375 0-0.85547 0.17969-1.1562 0.49609s-0.45703 0.74219-0.43359 1.1797l0.4375 8.332h-9.7852c-0.4375 0-0.85547 0.17969-1.1562 0.5-0.30078 0.31641-0.45703 0.74219-0.43359 1.1797l0.43359 8.3047c0.042969 0.84375 0.74219 1.5078 1.5898 1.5078zm11.027-8.3047h0.003906c0.4375 0.003906 0.85547-0.17578 1.1562-0.49609 0.30078-0.31641 0.45703-0.74219 0.43359-1.1797l-0.4375-8.332h5.1133l0.44531 8.5c0.046875 0.84766 0.74609 1.5078 1.5938 1.5078h9.9492l0.26953 5.1172h-9.7852c-0.4375 0-0.85547 0.17969-1.1562 0.5-0.30078 0.31641-0.45703 0.74219-0.43359 1.1797l1.0547 20.09h-5.1172l-1.0586-20.258c-0.046876-0.84766-0.74609-1.5117-1.5938-1.5117h-9.9492l-0.26953-5.1172z"/>
 <path d="m26.543 6.2969h-0.042969c-5.0156 0.027344-9.0703 4.0977-9.0742 9.1133v63.496l0.003907 0.019531v3.875h-0.003907c0.003907 3.1875 2.5781 5.7734 5.7656 5.7852l31.129 0.13281v3.0625l0.003907-0.003906c0 0.55859 0.28906 1.0742 0.76562 1.3633 0.47656 0.28906 1.0703 0.30859 1.5664 0.050781l2.3477-1.2266 2.625 1.5273v-0.003907c0.49219 0.28906 1.1016 0.28906 1.5977 0.003907 0.49219-0.28516 0.79688-0.8125 0.79688-1.3828v-3.3555l16.953 0.050782h0.003907c0.42578 0 0.82812-0.16797 1.1289-0.46484 0.29688-0.30078 0.46484-0.70703 0.46484-1.1289v-7.4805c0-0.14062-0.019531-0.28125-0.058594-0.41406 0.046875-0.16406 0.066406-0.33594 0.058594-0.50781l-4.3633-70.961c-0.050782-0.83984-0.75-1.4961-1.5898-1.4961zm-5.9297 50.422c0.09375-0.74609 0.51172-1.418 1.1406-1.832 1.2578-0.58203 2.6719-0.73438 4.0234-0.43359l0.10156 5.6289h-0.003906c-1.7773-0.29688-3.6055-0.074219-5.2617 0.63672zm0-4.8359v-24.004c0.078125-0.76562 0.48828-1.4609 1.1211-1.8984 1.1055-0.50781 2.3477-0.63281 3.5273-0.34766l0.45703 25.59c-1.7305-0.26172-3.5-0.035156-5.1055 0.66016zm4.5938-29.484c-1.5547-0.24219-3.1484-0.046876-4.5938 0.57031v-1.3516c0.074219-0.76953 0.48438-1.4648 1.1211-1.9023 1.0664-0.49609 2.2695-0.625 3.418-0.36328zm-4.5938 55.867v-12.711c0.09375-0.74609 0.51172-1.4141 1.1406-1.8281 1.3086-0.59766 2.7812-0.74219 4.1797-0.40625l0.24609 13.938h0.003906c-1.9062-0.03125-3.8008 0.30859-5.5703 1.0078zm4.3672-68.566 0.11328 6.4219c-1.5195-0.22266-3.0703-0.023438-4.4805 0.58203v-1.2891c0.003907-2.6719 1.793-5.0117 4.3672-5.7148zm35.855 79.645-0.99219-0.57422v-0.003906c-0.47266-0.27344-1.0508-0.28906-1.5391-0.035156l-0.79688 0.41406 0.003907-1.9844 0.003906-0.023437-0.003906-0.023438v-2.7109l3.3242 0.03125zm3.1875-3.7773v-2.7109c0-0.875-0.70313-1.5859-1.5781-1.5938l-6.5117-0.0625c-0.42578-0.003907-0.83594 0.16406-1.1367 0.46094-0.30469 0.30078-0.47266 0.70703-0.47266 1.1328v2.7383l-31.117-0.13281c-1.4336-0.003907-2.5938-1.168-2.5938-2.6016-0.015625-0.42188 0.16016-0.83203 0.48047-1.1094 1.2852-1.1758 4.6953-1.3555 6.5391-1.1914 0.046876 0.003906 0.097657 0.007812 0.14453 0.007812l51.609-0.003906v5.1133zm15.262-8.2539h-49.914v-0.007812l-1.207-67.82 46.957 0.054687z"/>
<text x="0.0" y="117.5" font-size="5.0" font-weight="bold" font-family="Arbeit Regular, Helvetica, Arial-Unicode, Arial, Sans-serif" fill="#000000">Created by Aidan Stonehouse</text><text x="0.0" y="122.5" font-size="5.0" font-weight="bold" font-family="Arbeit Regular, Helvetica, Arial-Unicode, Arial, Sans-serif" fill="#000000">from Noun Project</text></svg>