<svg xmlns="http://www.w3.org/2000/svg" viewBox="0 0 512 640" x="0px" y="0px"><g data-name="Layer 7"><path d="M424,440H405.762l-14.177-42.531A7.99,7.99,0,0,0,384,392H296V209.339a125.1,125.1,0,0,0,19.536-8.662,158.779,158.779,0,0,0,41.214,71.389l21.594,21.59A8,8,0,0,0,392,288V254.559l33.571-6.715a8,8,0,0,0,2.007-15l-25.468-12.735a105.1,105.1,0,0,1-48.836-51.017c.285-.355.544-.734.826-1.092H416a8,8,0,0,0,8-8V96a8,8,0,0,0-8-8H296V80a8,8,0,0,0-16,0V96a8,8,0,0,0,8,8H312.64a108.255,108.255,0,0,1-113.281,0H224a8,8,0,0,0,8-8V24h48V48a8,8,0,0,0,16,0V16a8,8,0,0,0-8-8H224a8,8,0,0,0-8,8V88H96a8,8,0,0,0-8,8v64a8,8,0,0,0,8,8h61.9c.281.358.54.736.825,1.091a105.1,105.1,0,0,1-48.836,51.018L84.421,232.844a8,8,0,0,0,2.008,15L120,254.559V288a8,8,0,0,0,13.656,5.656l21.594-21.59a158.781,158.781,0,0,0,41.215-71.389A125.047,125.047,0,0,0,216,209.339V232a8,8,0,0,0,16,0V213.546a118.586,118.586,0,0,0,48,0V392H232V264a8,8,0,0,0-16,0V392H128a7.991,7.991,0,0,0-7.586,5.469L106.236,440H88a8,8,0,0,0-8,8v48a8,8,0,0,0,8,8H368a8,8,0,0,0,0-16H96V456H416v32H400a8,8,0,0,0,0,16h24a8,8,0,0,0,8-8V448A8,8,0,0,0,424,440ZM394.952,234.422l4.618,2.305-17.141,3.429A8,8,0,0,0,376,248v20.688l-7.937-7.934a142.954,142.954,0,0,1-38.325-69.127,126.167,126.167,0,0,0,11.793-9.893A121.165,121.165,0,0,0,394.952,234.422ZM408,152H364.8a123.21,123.21,0,0,0,11.069-26.414L382.036,104H408ZM256,136a124.09,124.09,0,0,0,83.227-32h6.9a108.615,108.615,0,0,1-180.256,0h6.9A124.094,124.094,0,0,0,256,136ZM104,152V104h25.963l6.17,21.582A123.248,123.248,0,0,0,147.2,152Zm39.938,108.754L136,268.688V248a8,8,0,0,0-6.429-7.844l-17.141-3.429,4.617-2.305a121.169,121.169,0,0,0,53.423-52.689,126.167,126.167,0,0,0,11.793,9.893A142.96,142.96,0,0,1,143.937,260.754Zm7.586-139.566L146.61,104h.553a124.541,124.541,0,0,0,217.672,0h.554l-4.913,17.191a108.656,108.656,0,0,1-208.953,0ZM133.765,408H378.234L388.9,440H123.1Z"/></g><text x="0" y="527" fill="#000000" font-size="5px" font-weight="bold" font-family="'Helvetica Neue', Helvetica, Arial-Unicode, Arial, Sans-serif">Created by Start Up Graphic Design</text><text x="0" y="532" fill="#000000" font-size="5px" font-weight="bold" font-family="'Helvetica Neue', Helvetica, Arial-Unicode, Arial, Sans-serif">from the Noun Project</text></svg>