<svg xmlns="http://www.w3.org/2000/svg" version="1.1" viewBox="-5.0 -10.0 110.0 135.0">
 <path d="m50 67.531c2.875-0.51562 5.3242-2.3867 6.5742-5.0273 1.0586-3.9258-5.2305-12.402-5.9531-13.355h0.003906c-0.15625-0.18359-0.38281-0.29297-0.625-0.29297s-0.46875 0.10938-0.625 0.29297c-0.71875 0.95312-7.0078 9.4258-5.9531 13.355h0.003906c1.25 2.6406 3.6992 4.5117 6.5742 5.0273zm0-16.59c2.4922 3.4805 5.6602 8.9414 5.0664 11.156-1.0742 1.9453-2.9102 3.3477-5.0664 3.8711-2.1562-0.52344-3.9922-1.9258-5.0664-3.8711-0.65625-2.4336 2.9961-8.2539 5.0664-11.156z"/>
 <path d="m10.938 44.531c0.22266-0.007812 0.44531-0.03125 0.66797-0.066406l7.7109 28.293c-2.7773 0.51172-4.707 3.0586-4.4492 5.8711 0.25781 2.8164 2.6211 4.9688 5.4453 4.9648h59.375c2.8242 0.003906 5.1875-2.1484 5.4453-4.9648 0.25781-2.8125-1.6719-5.3594-4.4492-5.8711l7.7109-28.293c0.22266 0.035156 0.44531 0.058594 0.66797 0.066406 2.2109 0 4.207-1.332 5.0508-3.375 0.84766-2.043 0.37891-4.3984-1.1836-5.9609s-3.918-2.0312-5.9609-1.1836c-2.043 0.84375-3.375 2.8398-3.375 5.0508 0.003906 1.293 0.47266 2.543 1.3203 3.5195-3.0625 3.4141-6.4023 6.5703-9.9805 9.4336l-3.4258-10.281c1.8945-0.87109 2.9883-2.8867 2.6875-4.9531-0.30469-2.0664-1.9336-3.6836-4-3.9727-2.0664-0.28906-4.0781 0.82031-4.9336 2.7227-0.85938 1.9023-0.36328 4.1406 1.2227 5.5l-5.9023 7.8828c-3.4648-5.9844-6.332-12.297-8.5625-18.844 2.4375-0.96875 3.8438-3.5312 3.3516-6.1094-0.49219-2.5742-2.7461-4.4375-5.3711-4.4375-2.6211-0.003907-4.875 1.8594-5.3711 4.4375-0.49219 2.5742 0.91016 5.1406 3.3477 6.1094-2.1328 6.3477-4.8789 12.469-8.207 18.281l-5.4727-7.3164v-0.003906c1.5703-1.3477 2.0625-3.5703 1.2188-5.4609-0.84766-1.8906-2.8398-2.9961-4.8906-2.7227-2.0547 0.27344-3.6836 1.8633-4.0039 3.9102-0.32422 2.043 0.73438 4.0586 2.6055 4.9531l-4.2617 10.227c-3.5391-2.8477-6.8438-5.9766-9.8789-9.3555 0.84766-0.97656 1.3164-2.2266 1.3203-3.5195 0-2.2109-1.332-4.207-3.375-5.0508-2.043-0.84766-4.3984-0.37891-5.9609 1.1836s-2.0312 3.918-1.1836 5.9609c0.84375 2.043 2.8398 3.375 5.0508 3.375zm78.125-9.375c1.5781 0 3.0039 0.95312 3.6094 2.4102 0.60547 1.4609 0.26953 3.1406-0.84766 4.2578-1.1172 1.1172-2.7969 1.4531-4.2578 0.84766-1.457-0.60547-2.4102-2.0312-2.4102-3.6094 0.003906-2.1562 1.75-3.9023 3.9062-3.9062zm-19.531-0.78125c1.2656 0 2.4023 0.76172 2.8867 1.9297 0.48438 1.168 0.21484 2.5117-0.67578 3.4062-0.89453 0.89062-2.2383 1.1602-3.4062 0.67578-1.168-0.48438-1.9297-1.6211-1.9297-2.8867 0-1.7266 1.3984-3.125 3.125-3.125zm-23.438-9.375c0-1.5781 0.95312-3.0039 2.4102-3.6094 1.4609-0.60547 3.1406-0.26953 4.2578 0.84766 1.1172 1.1172 1.4531 2.7969 0.84766 4.2578-0.60547 1.457-2.0312 2.4102-3.6094 2.4102-2.1562-0.003906-3.9023-1.75-3.9062-3.9062zm-17.969 12.5c0-1.2656 0.76172-2.4023 1.9297-2.8867 1.168-0.48438 2.5117-0.21484 3.4062 0.67578 0.89062 0.89453 1.1602 2.2383 0.67578 3.4062-0.48438 1.168-1.6211 1.9297-2.8867 1.9297-1.7266 0-3.125-1.3984-3.125-3.125zm2.6133 4.6367c0.17188 0.027343 0.33984 0.042969 0.51172 0.050781 0.58594-0.003906 1.1641-0.11719 1.7109-0.33203l5.9141 7.9102c-2.25 3.3828-4.3672 5.3828-6.2031 5.7188-1.457 0.27344-3.6562-0.64062-6.4141-2.5859zm-6.0078 11.57c0.050781 0.046875 0.10547 0.085938 0.16797 0.11719 2.707 1.9648 5.2539 3.2617 7.2852 3.2617h-0.003906c0.26172 0 0.51953-0.023438 0.77344-0.066407 6.6055-1.2148 13.129-16.918 16.559-26.598 0.16406 0.011719 0.32031 0.046875 0.48828 0.046875 0.16406 0 0.32422-0.035156 0.48438-0.046875 2.3516 6.9727 5.4375 13.68 9.2031 20.004 0.035156 0.042969 0.078125 0.078125 0.12109 0.10938 0.046875 0.14844 0.13281 0.27734 0.25391 0.37109 0.34766 0.25781 0.83594 0.1875 1.0938-0.15625l6.6641-8.8945c0.54688 0.21484 1.125 0.32812 1.7109 0.33203 0.15625-0.007812 0.30859-0.023438 0.46484-0.046875l3.4844 10.449h-0.003907c0.050782 0.12891 0.13281 0.23828 0.24219 0.32422-2.7422 1.9336-4.9336 2.8398-6.3867 2.5664h-0.003906c-1.0352-0.25391-1.9844-0.78516-2.75-1.5312-0.32422-0.28516-0.81641-0.25391-1.1016 0.070312-0.28516 0.32031-0.25391 0.81641 0.066407 1.1016 0.97656 0.9375 2.1875 1.5898 3.5039 1.8984 0.25391 0.042969 0.51172 0.066407 0.77344 0.066407 4.7734 0 12.391-7.0977 18.254-13.453 0.25781 0.16797 0.52734 0.31641 0.80859 0.44141l-7.793 28.582h-47.84c-0.42969 0-0.78125 0.35156-0.78125 0.78125s0.35156 0.78125 0.78125 0.78125h48.438c2.1562 0 3.9062 1.75 3.9062 3.9062s-1.75 3.9062-3.9062 3.9062h-59.375c-2.1562 0-3.9062-1.75-3.9062-3.9062s1.75-3.9062 3.9062-3.9062h3.125c0.42969 0 0.78125-0.35156 0.78125-0.78125s-0.35156-0.78125-0.78125-0.78125h-2.5273l-7.793-28.582c0.28125-0.125 0.55078-0.27344 0.80859-0.44141 3.293 3.6758 6.9062 7.0469 10.805 10.074zm-13.793-18.551c1.5781 0 3.0039 0.95312 3.6094 2.4102 0.60547 1.4609 0.26953 3.1406-0.84766 4.2578-1.1172 1.1172-2.7969 1.4531-4.2578 0.84766-1.457-0.60547-2.4102-2.0312-2.4102-3.6094 0.003906-2.1562 1.75-3.9023 3.9062-3.9062z"/>
<text x="0.0" y="117.5" font-size="5.0" font-weight="bold" font-family="Arbeit Regular, Helvetica, Arial-Unicode, Arial, Sans-serif" fill="#000000">Created by Nursila</text><text x="0.0" y="122.5" font-size="5.0" font-weight="bold" font-family="Arbeit Regular, Helvetica, Arial-Unicode, Arial, Sans-serif" fill="#000000">from Noun Project</text></svg>