<svg xmlns="http://www.w3.org/2000/svg" version="1.1" viewBox="-5.0 -10.0 110.0 135.0">
 <path d="m41.719 59.387 9.4102-1.3438c0.34375-0.050781 0.61328-0.32031 0.66406-0.66406l1.3438-9.4102 32.699-32.699h-0.003907c0.15234-0.14453 0.23438-0.34375 0.23438-0.55078 0.003906-0.21094-0.078125-0.41016-0.22656-0.55859-0.14844-0.14844-0.34766-0.23047-0.55859-0.22656-0.20703 0-0.40625 0.082031-0.55078 0.23438l-32.699 32.695-9.4102 1.3438c-0.34375 0.050781-0.61328 0.32031-0.66406 0.66406l-1.3438 9.4102-8.2852 8.2852-17.125-17.125c-0.91406-0.91406-2.3984-0.91406-3.3125 0l-2.8711 2.8711c-0.66797 0.67188-0.86719 1.6797-0.50391 2.5547s1.2188 1.4453 2.1641 1.4453c0.20703 0 0.40625 0.082031 0.55469 0.23047l11.66 11.648-13.812 13.812c-0.91406 0.91406-0.91406 2.3945 0 3.3125l5.6016 5.6016c0.4375 0.44141 1.0352 0.6875 1.6562 0.6875h0.003906c0.62109 0 1.2148-0.24609 1.6523-0.6875l9.9414-9.9414h0.003906v-0.003906l3.8672-3.8672 11.648 11.66c0.14844 0.14844 0.23047 0.34766 0.23047 0.55469-0.011719 0.95313 0.5625 1.8125 1.4453 2.168 0.28906 0.12109 0.60156 0.18359 0.91406 0.18359 0.61719-0.003906 1.207-0.25391 1.6406-0.69141l2.8711-2.8711c0.4375-0.4375 0.68359-1.0352 0.68359-1.6562s-0.24609-1.2188-0.68359-1.6562l-0.53906-0.53906 30.125-28.445c0.49609-0.46484 0.76172-1.1289 0.73047-1.8086-0.039062-0.69141-0.375-1.3359-0.92969-1.7578-0.23437-0.18359-0.46094-0.38281-0.67578-0.59766-2.3906-2.3906-2.7383-6.1484-0.82812-8.9375 1.9102-2.793 5.5352-3.8281 8.6328-2.4688 0.69531 0.30859 1.5 0.26953 2.1602-0.10938 0.64062-0.36719 1.0664-1.0195 1.1445-1.7539l3.2734-29.445c0.082031-0.70703-0.16797-1.4141-0.66797-1.9141-0.50391-0.50391-1.2109-0.75391-1.918-0.67578l-37.273 4.1445c-0.55078 0.0625-1.0586 0.31641-1.4414 0.71875l-32.605 34.535c-0.29688 0.3125-0.28516 0.80859 0.03125 1.1016 0.3125 0.29688 0.80469 0.28516 1.1016-0.03125l32.605-34.531c0.12891-0.13281 0.30078-0.21875 0.48438-0.23828l37.27-4.1445c0.23828-0.027344 0.47266 0.054687 0.64062 0.22266 0.16797 0.16797 0.25 0.40625 0.22266 0.64062l-3.2773 29.445c-0.023438 0.24219-0.16016 0.45312-0.37109 0.57422-0.23047 0.12891-0.50781 0.14062-0.75 0.03125-3.7852-1.6641-8.2188-0.39844-10.555 3.0156-2.332 3.4141-1.9062 8.0039 1.0195 10.926 0.25781 0.26172 0.53516 0.50391 0.82812 0.73047 0.1875 0.14453 0.30469 0.36328 0.31641 0.59766 0.011719 0.22266-0.074219 0.44141-0.23828 0.59375l-30.16 28.477-15.48-15.48zm1.7031-9.7148 8.0547-1.1523-1.1484 8.0586-8.0547 1.1523zm-26.527 40.145c-0.14844 0.14453-0.34766 0.22656-0.55078 0.22656h-0.003906c-0.20703 0-0.40625-0.082031-0.55078-0.23047l-5.6055-5.6016c-0.30078-0.30469-0.30078-0.80078 0-1.1055l9.3906-9.3906 6.707 6.707zm32.559-2.8086-2.8672 2.8672h-0.003907c-0.22266 0.22266-0.55859 0.28906-0.85156 0.16797-0.29297-0.12109-0.48047-0.40625-0.48047-0.72266 0-0.62109-0.24609-1.2188-0.68359-1.6602l-12.199-12.215v0.003907c-0.14844-0.14844-0.34766-0.23047-0.55469-0.23047s-0.40625 0.082031-0.55078 0.23047l-3.8711 3.8711-6.707-6.707 3.3164-3.3164 2.0117 2.0078v-0.003907c0.14453 0.14844 0.34375 0.23438 0.55078 0.23438 0.21094 0.003906 0.41016-0.078125 0.55859-0.22656 0.14844-0.14844 0.23047-0.34766 0.22656-0.55859 0-0.20703-0.082031-0.40625-0.23438-0.55078l-14.773-14.762c-0.44141-0.44141-1.0391-0.69141-1.6602-0.6875-0.31641 0-0.60156-0.19141-0.72266-0.48047-0.12109-0.29297-0.054687-0.62891 0.16797-0.85156l2.8711-2.8711c0.30859-0.29297 0.79297-0.29297 1.1016 0l34.203 34.203c0.007813 0.011719 0.011719 0.027344 0.023438 0.035156 0.011719 0.015625 0.03125 0.019532 0.046875 0.03125l1.082 1.082v0.003906c0.14453 0.14453 0.22656 0.34375 0.22656 0.55078s-0.082032 0.40625-0.22656 0.55078z"/>
 <path d="m85.988 62.785c-0.14453-0.14844-0.34766-0.23438-0.55469-0.23438-0.20703 0-0.41016 0.082031-0.55469 0.23047-0.14844 0.14453-0.23047 0.34766-0.23047 0.55469 0 0.20703 0.085937 0.40625 0.23437 0.55469l2.1289 2.1289c0.14844 0.14844 0.34766 0.23438 0.55469 0.23438 0.21094 0 0.41016-0.082031 0.55859-0.22656 0.14453-0.14844 0.22656-0.34766 0.22656-0.55859 0-0.20703-0.085937-0.40625-0.23437-0.55469z"/>
 <path d="m89.891 55.73c-0.42969 0-0.78125 0.35156-0.78125 0.78125 0 0.43359 0.35156 0.78125 0.78125 0.78125h2.3672c0.42969 0 0.78125-0.34766 0.78125-0.78125 0-0.42969-0.35156-0.78125-0.78125-0.78125z"/>
 <path d="m77.828 67.793v2.3672c0 0.42969 0.35156 0.78125 0.78125 0.78125 0.43359 0 0.78125-0.35156 0.78125-0.78125v-2.3672c0-0.42969-0.34766-0.78125-0.78125-0.78125-0.42969 0-0.78125 0.35156-0.78125 0.78125z"/>
 <path d="m36.664 15.348c0.3125 0 0.59766-0.19141 0.71875-0.48438 0.12109-0.28906 0.054688-0.625-0.16797-0.85156l-2.1289-2.1289c-0.30859-0.30078-0.79688-0.29687-1.1016 0.003907-0.30078 0.30469-0.30469 0.79297-0.003906 1.1016l2.1289 2.1289c0.14844 0.14844 0.34375 0.23047 0.55469 0.23047z"/>
 <path d="m44.27 10.109v-2.3672c0-0.42969-0.35156-0.78125-0.78125-0.78125-0.43359 0-0.78125 0.35156-0.78125 0.78125v2.3672c0 0.42969 0.34766 0.78125 0.78125 0.78125 0.42969 0 0.78125-0.35156 0.78125-0.78125z"/>
 <path d="m32.207 22.172c0.42969 0 0.78125-0.35156 0.78125-0.78125s-0.35156-0.78125-0.78125-0.78125h-2.3672c-0.42969 0-0.78125 0.35156-0.78125 0.78125s0.35156 0.78125 0.78125 0.78125z"/>
<text x="0.0" y="117.5" font-size="5.0" font-weight="bold" font-family="Arbeit Regular, Helvetica, Arial-Unicode, Arial, Sans-serif" fill="#000000">Created by Nursila</text><text x="0.0" y="122.5" font-size="5.0" font-weight="bold" font-family="Arbeit Regular, Helvetica, Arial-Unicode, Arial, Sans-serif" fill="#000000">from Noun Project</text></svg>